<svg version="1.0" xmlns="http://www.w3.org/2000/svg" width="1000.000000ptpx" height="1000.000000ptpx" viewBox="0 0 1000.000000 1000.000000" preserveAspectRatio="xMidYMid meet" transform="rotate(0) scale(1, 1)">

<g transform="translate(0.000000,1000.000000) scale(0.100000,-0.100000)" fill="#6937c6" stroke="none">
<path d="M0 5770 c0 -2921 3 -4261 11 -4328 22 -205 72 -379 157 -549 251&#10;-498 717 -821 1274 -882 136 -15 6980 -15 7116 0 343 37 649 171 900 393 275&#10;242 468 598 523 961 12 75 14 687 14 3635 0 2948 -2 3560 -14 3635 -55 363&#10;-248 719 -523 961 -251 222 -557 356 -900 393 -67 8 -1407 11 -4328 11 l-4230&#10;0 0 -4230z m3756 -1231 c366 -37 635 -201 769 -469 77 -155 114 -322 122 -557&#10;l6 -173 -372 0 -371 0 0 83 c0 97 -14 204 -36 268 -35 107 -141 181 -262 183&#10;-183 3 -269 -80 -308 -294 -17 -94 -20 -1706 -4 -1808 33 -203 137 -305 310&#10;-305 85 0 129 15 184 63 72 64 103 156 113 333 l6 117 369 0 368 0 0 -124 c0&#10;-498 -256 -872 -689 -1006 -147 -46 -385 -63 -568 -40 -417 53 -698 283 -802&#10;658 -40 146 -42 214 -39 1257 4 981 4 1002 25 1087 47 190 129 335 259 458&#10;123 117 255 186 451 236 158 40 301 50 469 33z m2479 -23 c151 -39 271 -102&#10;368 -195 44 -42 102 -109 128 -149 112 -170 179 -435 179 -704 l0 -128 -333 0&#10;-334 0 -6 138 c-15 321 -74 419 -257 430 -94 5 -154 -9 -210 -49 -134 -97&#10;-148 -422 -26 -582 43 -57 166 -137 279 -182 278 -111 503 -248 648 -394 81&#10;-82 102 -110 141 -191 109 -225 142 -370 142 -630 1 -143 -3 -204 -17 -268&#10;-91 -413 -333 -685 -697 -784 -78 -21 -105 -23 -310 -22 -210 0 -232 2 -322&#10;27 -177 47 -303 121 -420 246 -170 181 -262 435 -275 759 l-6 142 351 0 352 0&#10;0 -87 c1 -232 91 -409 228 -449 66 -19 168 -14 228 11 112 47 164 167 164 380&#10;0 178 -31 275 -118 367 -62 66 -148 118 -414 247 -258 126 -378 202 -483 306&#10;-163 160 -244 353 -264 627 -19 262 24 501 127 703 38 75 63 107 151 195 90&#10;90 120 113 198 152 176 89 319 119 548 114 132 -3 178 -8 260 -30z m2250 0&#10;c55 -14 143 -47 195 -73 81 -40 109 -61 191 -143 86 -86 101 -107 152 -210 90&#10;-184 136 -399 137 -637 l0 -113 -334 0 -333 0 -7 133 c-12 223 -41 324 -110&#10;385 -47 41 -104 55 -201 50 -128 -7 -203 -61 -242 -173 -28 -79 -25 -291 5&#10;-366 46 -115 138 -190 341 -277 303 -129 496 -247 636 -387 73 -72 100 -108&#10;137 -180 58 -113 102 -238 130 -368 29 -135 31 -398 5 -529 -83 -414 -333&#10;-702 -697 -800 -77 -21 -107 -23 -305 -23 -194 1 -231 3 -308 23 -180 45 -301&#10;111 -420 229 -185 183 -281 435 -294 771 l-6 152 349 0 349 0 2 -98 c1 -57 10&#10;-128 22 -174 52 -201 157 -289 329 -274 139 11 204 62 244 189 19 61 23 94 23&#10;212 0 118 -4 151 -22 210 -50 155 -120 212 -471 386 -145 72 -305 159 -355&#10;192 -111 74 -230 189 -285 276 -171 264 -198 738 -62 1090 73 188 220 353 400&#10;445 168 87 313 117 545 112 133 -3 177 -8 260 -30z"/>
</g>
</svg>