<?xml version="1.0" encoding="utf-8" ?><svg xmlns="http://www.w3.org/2000/svg" xmlns:xlink="http://www.w3.org/1999/xlink" width="256" height="256" viewBox="0 0 256 256"><path fill="#C6C5C5" d="M117.292 0L119.927 0L120.159 0.0456391C122.307 0.452315 124.965 0.465162 127.232 0.610391C158.017 2.5819 192.292 19.135 204.451 49.0572C209.45 61.3588 213.329 78.2718 212.3 91.4279C212.129 93.1936 210.365 97.8874 210.705 99.4065C212.072 105.506 216.412 112.739 219.728 118.093C222.287 122.224 232.986 127.055 226.088 133.416C222.536 136.692 213.384 134.074 211.081 138.277C210.195 139.999 214.523 142.849 215.728 143.771C215.853 146.882 217.944 154.172 216.572 155.876C214.89 157.964 207.405 157.491 205.65 160.152L205.667 160.418C209.26 161.015 215.928 158.122 214.919 164.8C214.393 168.73 207.667 168.098 206.848 171.513C206.415 173.32 209.003 177.345 209.765 179.287C212.816 187.063 205.446 197.812 196.692 196.014L196.468 195.967C190.24 198.736 176.661 192.81 170.227 194.883C169.058 195.26 167.881 198.074 167.143 198.842C164.404 210.235 160.608 221.485 159.969 233.327C159.587 240.422 166.773 249.96 158.377 254.867C157.568 255.34 156.711 255.586 155.964 256L150.872 256C148.85 255.144 145.254 254.634 143.309 253.294C139.312 250.541 135.313 246.979 131.558 243.861L110.325 226.288L81.87 202.72C77.0806 198.75 72.1043 194.826 67.5199 190.675C61.4447 185.191 60.8162 177.247 61.4049 169.615C62.6263 153.781 56.9682 144.748 46.4877 133.717C31.8076 118.039 25.3679 96.794 27.2846 75.8799C31.3589 31.4222 70.4386 1.83527 113.418 0.411995C114.447 0.377908 116.152 0.282049 117.12 0.0439485L117.292 0Z"/><path fill="#5B5B5B" d="M108.598 11.415C119.246 10.9507 127.949 11.2257 138.337 14.0667C158.051 19.4578 173.968 32.1282 181.418 51.472C181.86 52.7438 182.341 54.0356 182.645 55.3442C185.279 64.1683 185.102 75.6285 180.007 83.6054C179.538 84.4155 178.083 87.0176 177.445 87.549C171.269 96.489 162.576 101.85 155.575 109.816C153.127 112.601 151.07 117.36 149.794 120.84C149.366 122.102 149.039 123.169 148.684 124.451C146.561 122.75 137.738 124.574 135.4 123.202C132.611 121.565 124.032 112.288 122.29 109.844L122.279 99.4452L116.943 99.4401C116.86 103.947 116.611 110.308 116.874 114.74C118.607 116.462 123.003 120.648 124.378 122.403C124.994 124.812 124.855 130.977 124.857 133.718C131.028 141.883 114.754 142.709 120.699 133.523L120.761 123.896C119.023 122.175 114.338 117.971 113.297 116.304C112.879 113.41 112.907 102.684 113.01 99.2073L108.185 99.2496C108.028 103.345 108.423 108.178 107.746 112.022C106.78 117.496 97.551 122.282 95.8417 126.968C94.6814 131.842 96.1421 137.182 95.2788 142.134C95.1098 143.103 93.9314 144.778 93.2195 145.527C86.8087 152.267 80.0412 158.738 73.3359 165.184C73.2208 165.294 72.6572 165.522 72.4837 165.585C72.3624 164.372 72.3225 162.873 72.2564 161.632C70.7741 149.425 67.312 139.999 58.781 130.951C47.2251 118.696 41.5199 107.639 38.3476 90.9508L37.8373 87.2677C37.2647 83.1338 37.38 76.9026 37.9037 72.789C38.0288 70.8699 38.1102 70.1519 38.5743 68.2927C39.5078 64.1402 40.5888 59.4577 42.4573 55.6281C42.9953 54.3833 43.5001 53.3247 44.1027 52.1164C53.0053 32.8211 71.8194 19.8147 91.8009 14.0725C93.2362 13.5421 94.7714 13.3599 96.2858 13.1168C98.7961 12.644 101.54 12.2649 104.079 11.8643C104.959 11.5514 107.612 11.4499 108.598 11.415Z"/><path fill="#292828" d="M63.048 83.5215L79.5308 83.5102L79.5404 90.7215C76.432 90.7266 72.3263 90.6188 69.2984 90.801C65.5436 93.0651 65.003 95.1969 65.0791 99.5047C65.1307 102.427 65.4223 105.633 65.1261 108.547C64.9445 110.335 63.629 112.024 63.2037 113.796C66.897 120.207 72.9974 115.61 69.3627 110.354L69.2214 110.152C69.2017 105.932 69.1662 101.366 69.0384 97.1273C69.0001 95.8584 70.2259 94.7427 71.5389 94.6042C74.4138 94.301 77.4826 94.4688 80.4128 94.5155C83.6172 99.5046 86.8936 99.5943 92.2641 99.4177L92.2258 106.945C90.8055 109.172 87.1329 113.588 84.4044 113.772C75.6373 114.366 75.3084 118.1 75.5416 126.09C75.5989 128.053 71.0346 137.159 78.1877 135.516C81.8579 134.673 81.6946 131.025 79.2668 128.563C79.2618 127.345 78.9917 119.829 79.9637 119.009C81.0416 118.101 85.4173 117.799 86.893 117.098C90.7516 115.334 96.1254 110.215 96.0807 105.711C96.0604 103.66 96.0372 101.47 95.9859 99.4411L104.213 99.4699C104.199 102.296 104.517 110.296 103.394 112.419C101.163 116.639 94.0446 120.658 92.1562 125.228C89.7732 130.994 93.8369 139.306 89.4562 144.351C87.6469 146.434 85.6248 148.38 83.6666 150.338L73.4008 160.599C73.0108 160.985 72.711 161.319 72.2564 161.632C70.7741 149.425 67.312 139.999 58.781 130.951C47.2251 118.696 41.5199 107.639 38.3476 90.9508C40.6507 90.035 50.1821 91.9113 53.5951 90.4856C57.6599 88.7877 59.3782 85.3551 63.048 83.5215Z"/><path fill="#292828" d="M108.598 11.415C119.246 10.9507 127.949 11.2257 138.337 14.0667C158.051 19.4578 173.968 32.1282 181.418 51.472L173.457 51.4735C161.886 51.5547 163.496 59.4049 156.743 61.8664C154.537 62.6703 139.967 62.2183 136.71 62.2038L136.694 55.2036L148.311 55.2688C162.538 55.3481 160.786 52.6808 160.783 40.002C165.394 35.5452 161.348 30.9578 156.548 33.5205C154.127 34.8128 155.561 37.9825 157.003 39.8637C157.049 41.9561 157.536 49.1608 156.339 50.5636C153.587 52.3166 141.188 51.3706 136.807 51.6486C135.866 40.6376 129.481 40.5992 120.676 40.4629C120.311 37.3359 120.523 30.4643 120.571 27.19C123.519 27.1588 126.524 27.2258 129.476 27.2618C132.898 29.5557 136.873 28.9116 136.006 23.7851C135.754 22.2959 133.736 21.3377 132.403 20.7245C130.938 21.561 130.568 21.7753 129.343 22.9722L108.714 22.9594C108.764 19.2129 108.693 15.1668 108.598 11.415Z"/><path fill="#292828" d="M91.8009 14.0725C91.9002 14.1893 92.0188 14.329 92.1568 14.4914C92.357 21.9089 92.2563 33.9595 92.257 40.7221C78.6496 40.8355 79.4026 46.7101 79.5176 57.7408C76.1653 57.919 63.0708 58.6798 61.4038 57.099C53.8491 49.9353 53.1687 53.3699 44.1027 52.1164C53.0053 32.8211 71.8194 19.8147 91.8009 14.0725Z"/><path fill="#5B5B5B" d="M81.5664 31.6954C82.5449 31.2921 83.6654 31.4547 84.4888 32.1196C85.3121 32.7844 85.7072 33.8454 85.5192 34.8869C85.3311 35.9283 84.5899 36.7842 83.586 37.119C82.1059 37.6127 80.5008 36.8449 79.9564 35.3827C79.4119 33.9206 80.1239 32.2899 81.5664 31.6954Z"/><path fill="#292828" d="M136.725 77.0478C143.171 77.2085 149.884 76.8587 156.277 77.1349C160.079 79.2379 162.52 84.4194 166.921 86.4485C169.88 87.8131 175.564 86.6371 177.445 87.549C171.269 96.489 162.576 101.85 155.575 109.816C153.127 112.601 151.07 117.36 149.794 120.84C147.033 119.69 140.285 120.005 136.881 119.973C133.646 116.982 128.674 111.366 125.751 108.066L125.745 99.5347C133.824 98.5707 136.526 95.5294 136.5 87.2432C146.447 87.4202 150.84 84.9734 146.712 98.0519C145.03 103.378 156.523 103.498 152.883 96.3661C152.759 96.124 151.969 94.092 151.973 93.9843C152.404 81.3904 146.122 83.2109 136.722 83.2627L136.725 77.0478Z"/><path fill="#292828" d="M136.73 66.1798C142.172 66.3251 148.023 66.4204 153.214 66.4104C162.583 66.3922 162.722 59.7799 169.252 55.9182C171.018 54.8736 179.695 55.4467 182.645 55.3442C185.279 64.1683 185.102 75.6285 180.007 83.6054C176.858 82.241 171.951 84.2594 168.53 82.9008C166.416 82.0612 164.304 79.2374 162.707 77.6069C161.491 76.3651 160.129 74.7019 158.536 73.9615C155.355 72.4835 140.875 72.8681 136.692 72.7894L136.73 66.1798Z"/><path fill="#5B5B5B" d="M170.007 64.2096C171.559 63.8893 173.084 64.8615 173.449 66.4035C173.814 67.9456 172.887 69.4983 171.356 69.9076C170.325 70.1832 169.227 69.8768 168.488 69.1078C167.748 68.3389 167.486 67.2289 167.802 66.2102C168.118 65.1915 168.963 64.4251 170.007 64.2096Z"/><path fill="#292828" d="M37.9037 72.789C40.2704 73.4082 50.3835 72.9516 53.7236 73.1631C57.6306 76.5564 58.4152 73.397 61.3821 73.2248C67.3317 72.8796 73.536 73.2067 79.5245 73.0346L79.5168 79.7718C74.2952 79.5847 63.104 78.4568 59.2873 81.1675C57.47 82.4581 54.7521 85.5327 52.4546 86.9374C50.5843 87.0408 39.4112 87.5826 37.8373 87.2677C37.2647 83.1338 37.38 76.9026 37.9037 72.789Z"/><path fill="#292828" d="M42.4573 55.6281C44.9775 56.2675 50.5885 55.8424 53.4634 56.0257C55.7737 57.5821 57.8462 59.8713 60.3482 61.0403C62.7952 62.1836 76.2666 61.8909 79.5204 61.5909L79.5248 69.1931C73.8835 69.2055 66.4083 69.4138 60.9235 69.1049C58.3252 66.155 56.7097 65.6296 53.6394 68.5687C51.9204 68.6071 39.4094 69.052 38.6593 68.395C38.626 68.3658 38.6026 68.3268 38.5743 68.2927C39.5078 64.1402 40.5888 59.4577 42.4573 55.6281Z"/><path fill="#292828" d="M96.2858 13.1168C98.7961 12.644 101.54 12.2649 104.079 11.8643L104.607 12.1718C104.891 13.7182 104.756 18.3739 104.748 20.1305L104.772 33.2545C104.765 35.4614 104.606 38.3989 104.698 40.5297C101.882 40.547 98.9673 40.6046 96.1595 40.5488L96.1647 22.4579C96.1602 20.2662 96.0307 15.068 96.2858 13.1168Z"/><path fill="#292828" d="M111.569 54.6495L120.15 54.6477C124.364 64.3322 127.946 74.7393 132.25 84.5354L124.786 84.6509C124.147 83.2491 122.569 78.7088 121.312 78.1992C117.756 78.2084 113.75 78.2966 110.242 78.085C109.344 80.2492 108.487 82.5488 107.632 84.7397L100.051 84.738C103.012 75.6017 108.02 63.8752 111.569 54.6495Z"/><path fill="#5B5B5B" d="M116.097 62.16C116.747 62.7138 119.428 70.7254 120.052 72.2329L115.687 72.2522L112.224 72.2427C113.587 68.8576 114.839 65.5855 116.097 62.16Z"/><path fill="#292828" d="M90.7095 54.4017C92.9805 54.4868 95.7242 54.442 98.0265 54.4587L97.9975 84.6923C96.1736 84.5444 92.4821 84.4991 90.6984 84.7056C90.5485 74.7599 90.6535 64.355 90.7095 54.4017Z"/><path fill="#292828" d="M108.442 27.1585C111.278 27.2265 114.224 27.1805 117.068 27.1754C116.954 31.4512 117.067 36.2108 117.076 40.5242C114.252 40.6037 111.169 40.5444 108.323 40.5386C108.33 36.087 108.306 31.6056 108.442 27.1585Z"/><path fill="#292828" d="M108.185 99.2496L113.01 99.2073C112.907 102.684 112.879 113.41 113.297 116.304C114.338 117.971 119.023 122.175 120.761 123.896L120.699 133.523C114.754 142.709 131.028 141.883 124.857 133.718C124.855 130.977 124.994 124.812 124.378 122.403C123.003 120.648 118.607 116.462 116.874 114.74C116.611 110.308 116.86 103.947 116.943 99.4401L122.279 99.4452L122.29 109.844C124.032 112.288 132.611 121.565 135.4 123.202C137.738 124.574 146.561 122.75 148.684 124.451C146.542 133.017 143.048 151.565 143.818 160.05C144.03 162.383 144.628 164.608 145.835 166.634C151.007 175.314 175.05 186.565 184.366 190.726C188.297 192.482 192.773 193.792 196.468 195.967C190.24 198.736 176.661 192.81 170.227 194.883C169.058 195.26 167.881 198.074 167.143 198.842C156.91 200.815 150.84 230.369 150.367 239.711C150.131 244.381 146.309 242.734 143.931 240.82C138.612 236.537 133.332 232.111 128.068 227.752L97.566 202.492L82.753 190.234C80.4878 188.374 74.7953 183.936 73.164 181.853C70.9559 179.033 71.9558 169.231 72.4837 165.585C72.6572 165.522 73.2208 165.294 73.3359 165.184C80.0412 158.738 86.8087 152.267 93.2195 145.527C93.9314 144.778 95.1098 143.103 95.2788 142.134C96.1421 137.182 94.6814 131.842 95.8417 126.968C97.551 122.282 106.78 117.496 107.746 112.022C108.423 108.178 108.028 103.345 108.185 99.2496Z"/><path fill="#5B5B5B" d="M106.207 125.36C107.331 124.907 108.612 125.093 109.561 125.848C110.509 126.603 110.978 127.81 110.788 129.007C110.598 130.205 109.779 131.207 108.643 131.631C106.918 132.276 104.996 131.415 104.329 129.698C103.663 127.982 104.499 126.049 106.207 125.36Z"/><path fill="#292828" d="M197.67 90.8038C200.968 90.4573 203.837 91.2533 206.11 94.094C206.467 94.54 206.264 94.9543 206.107 95.4291C205.026 96.5648 202.039 96.7442 200.329 97.0055C199.865 101.883 199.232 106.257 195.771 109.978C193.907 109.252 192.086 108.067 190.367 107.021C185.829 104.241 183.217 103.911 177.989 103.961C183.979 97.8338 188.835 92.4287 197.67 90.8038Z"/></svg>